PathFileType	4	(X/Y/Z)	E:\Qualisys_Data\Carbon_Farble_Plate\Data\Amateur_Runner\S1\T1\S1T1V13_c3d.trc
DataRate	CameraRate	NumFrames	NumMarkers	Units	OrigDataRate	OrigDataStartFrame	OrigNumFrames
200.000000	200.000000	4	39	mm	200.000000	41	328
Frame#	Time	LSHO			RSHO			LICST			RICST			LASIS			LHEEL			RASIS			LTROC			RTROC			SACR			LTH1			LSK4			LTH2			LTH3			RHM5			LSK2			LTH4			RTH1			LTOE			RTH2			RTH3			RTH4			LLEP			RLEP			LSK1			LSK3			RSK1			LHM5			RSK2			LFT1			RSK3			RSK4			LLME			RLME			RTOE			RHEEL			RFT1			RFT2			LFT2			
		X1	Y1	Z1	X2	Y2	Z2	X3	Y3	Z3	X4	Y4	Z4	X5	Y5	Z5	X6	Y6	Z6	X7	Y7	Z7	X8	Y8	Z8	X9	Y9	Z9	X10	Y10	Z10	X11	Y11	Z11	X12	Y12	Z12	X13	Y13	Z13	X14	Y14	Z14	X15	Y15	Z15	X16	Y16	Z16	X17	Y17	Z17	X18	Y18	Z18	X19	Y19	Z19	X20	Y20	Z20	X21	Y21	Z21	X22	Y22	Z22	X23	Y23	Z23	X24	Y24	Z24	X25	Y25	Z25	X26	Y26	Z26	X27	Y27	Z27	X28	Y28	Z28	X29	Y29	Z29	X30	Y30	Z30	X31	Y31	Z31	X32	Y32	Z32	X33	Y33	Z33	X34	Y34	Z34	X35	Y35	Z35	X36	Y36	Z36	X37	Y37	Z37	X38	Y38	Z38	X39	Y39	Z39	

42	0.205	-1816.64111328125	1474.873168945312	-534.5250854492188	-1854.59521484375	1424.788696289062	-208.9858551025391	-1880.589477539062	982.0176391601562	-535.2490844726562	-1875.784545898438	1020.882873535156	-236.2853393554688	-1830.327270507812	949.7062377929688	-506.8074035644531	-2142.361572265625	368.6465148925781	-438.8862609863281	-1833.609985351562	974.9263916015624	-239.7119903564453	-1930.563720703125	854.41259765625	-543.2744750976562	-1932.751953125	879.2333984375	-206.2998504638672	-1993.838134765625	1012.422729492188	-378.5927734375	-1754.71435546875	756.8171997070312	-534.2081909179688	-2002.7802734375	429.2629089355469	-474.6077880859375	-1829.065063476562	720.7330932617188	-558.181884765625	-1712.888427734375	661.2100219726562	-531.6028442382812	-1848.573120117188	59.86941909790039	-251.0713043212891	-1913.853515625	463.1056823730469	-516.545166015625	-1791.341186523438	628.1024780273438	-544.6658935546875	-1779.027221679688	766.2357788085938	-224.5319671630859	-2035.473876953125	135.9464263916016	-446.8238220214844	-1854.71923828125	749.6839599609375	-202.0109405517578	-1760.547607421875	666.715087890625	-235.2966766357422	-1839.7470703125	651.6873168945312	-221.1936340332031	-1714.950927734375	500.9927062988281	-519.5435791015625	-1779.471557617188	491.682373046875	-266.2613525390625	-1884.384399414062	383.6594543457031	-511.4393005371094	-1982.377807617188	355.0621948242188	-501.7319641113281	-1839.8955078125	312.2938232421875	-256.9164733886719	-2082.7021484375	185.5764465332031	-502.5651550292969	-1914.880126953125	343.8410949707031	-261.9140319824219	-2158.456787109375	347.6771850585938	-408.402587890625	-1877.634887695312	220.4337768554688	-274.6123962402344	-1950.18603515625	253.1390228271484	-287.6366577148438	-2100.81396484375	334.7313842773438	-487.9923095703125	-1959.911499023438	121.9747161865234	-275.0566101074219	-1778.213745117188	68.65194702148438	-332.588623046875	-2034.187133789062	99.66702270507812	-312.1499633789062	-2028.131591796875	68.31642150878906	-343.6057434082031	-2032.183227539062	73.4265365600586	-285.5823669433594	-2169.468994140625	353.3925170898438	-461.8485412597656
43	0.21	-1804.101440429688	1476.521484375	-535.6025390625	-1837.880981445312	1426.9921875	-209.4123687744141	-1867.156494140625	983.6865234375	-535.8128051757812	-1859.56103515625	1022.132385253906	-235.8959503173828	-1817.122192382812	951.4891967773438	-507.5603637695312	-2117.82275390625	361.7871398925781	-438.9786071777344	-1818.41796875	976.0264892578124	-239.6233978271484	-1916.357055664062	856.0899047851562	-543.0065307617188	-1918.21728515625	880.0957641601562	-205.95654296875	-1978.243408203125	1013.253479003906	-376.4474792480469	-1738.95458984375	761.6265258789062	-534.3810424804688	-1979.3447265625	427.3670959472656	-474.3760986328125	-1812.47900390625	723.8370361328125	-557.5244140625	-1695.477172851562	666.3905029296875	-531.76806640625	-1848.397216796875	59.9902458190918	-251.5640716552734	-1890.743896484375	462.97509765625	-515.6193237304688	-1772.078369140625	631.640869140625	-543.9686889648438	-1766.985107421875	764.494873046875	-224.8764190673828	-2003.150390625	132.3375396728516	-446.2871704101562	-1842.919311523438	749.431640625	-201.8342437744141	-1752.78662109375	664.4213256835938	-235.5239715576172	-1831.560180664062	651.5982055664062	-221.46923828125	-1692.984741210938	506.3406372070312	-518.9840087890625	-1771.440063476562	490.9237365722656	-267.4155578613281	-1859.796020507812	384.6076354980469	-510.8394775390625	-1957.325927734375	354.2767639160156	-502.3204956054688	-1835.246704101562	312.2311401367188	-258.3249816894531	-2050.350830078125	180.818359375	-502.4161376953125	-1910.27001953125	344.0154724121094	-261.8642578125	-2132.258056640625	339.9013061523438	-407.9255676269531	-1874.624633789062	220.4073638916016	-275.4031372070312	-1946.994384765625	253.9917144775391	-289.0021362304688	-2073.648681640625	328.4422302246094	-487.4062805175781	-1959.184814453125	122.420166015625	-275.4097900390625	-1777.225463867188	68.11491394042969	-333.4593200683594	-2033.555297851562	100.1802597045898	-311.9518127441406	-2027.155151367188	69.37191772460938	-343.4351806640625	-2032.154052734375	74.39412689208984	-285.5879211425781	-2144.2333984375	345.6735229492188	-462.1479797363281
44	0.215	-1791.62548828125	1478.857666015625	-536.8563842773438	-1819.806640625	1429.321655273438	-209.821533203125	-1852.867553710938	985.5611572265624	-536.0947875976562	-1845.96728515625	1022.829284667969	-234.8151702880859	-1803.713745117188	953.6829833984376	-508.3411254882812	-2092.74755859375	354.5755920410156	-439.1097412109375	-1802.112548828125	976.3086547851562	-240.0303497314453	-1901.494140625	858.409423828125	-542.9962158203125	-1904.011352539062	881.7139282226562	-206.0362854003906	-1963.467651367188	1015.73486328125	-376.2314453125	-1723.10546875	765.7676391601562	-534.0254516601562	-1955.648193359375	423.185302734375	-474.9331359863281	-1796.488037109375	727.4630126953125	-558.92431640625	-1677.85107421875	672.3257446289062	-531.3814086914062	-1847.872192382812	59.93317794799805	-251.5309753417969	-1867.158325195312	462.5722961425781	-513.088134765625	-1754.260375976562	635.8141479492188	-543.9938354492188	-1755.596923828125	763.758056640625	-224.8536682128906	-1968.638671875	128.8179779052734	-446.6293029785156	-1831.69140625	749.544921875	-202.5154724121094	-1742.02587890625	663.4193725585938	-236.6766510009766	-1821.09228515625	652.0997314453125	-221.5063171386719	-1671.605102539062	511.9017944335938	-518.2879028320312	-1764.660034179688	490.2527160644531	-269.3330688476562	-1834.563354492188	385.6918029785156	-510.47509765625	-1931.68603515625	352.464599609375	-502.3178405761719	-1831.55419921875	311.4569702148438	-259.6861877441406	-2017.700317382812	176.4397583007812	-502.5848388671875	-1906.49560546875	344.935302734375	-261.8340148925781	-2106.318359375	331.9277648925781	-408.3033447265625	-1872.633544921875	220.7044830322266	-276.64306640625	-1943.9560546875	254.8543853759766	-287.7001342773438	-2047.758056640625	322.5107727050781	-487.7333374023438	-1957.946411132812	123.8158187866211	-274.82421875	-1777.705444335938	66.78578186035156	-332.9561462402344	-2031.805908203125	101.1984252929688	-312.7228393554688	-2027.206787109375	70.41089630126953	-343.2724914550781	-2027.147705078125	75.8996810913086	-284.7746276855469	-2119.36181640625	337.9564819335938	-462.6017456054688
45	0.22	-1779.363037109375	1480.9072265625	-537.6113891601562	-1802.561401367188	1432.143920898438	-210.5907897949219	-1838.81201171875	987.7249145507812	-536.3079833984375	-1830.311279296875	1024.22021484375	-234.96533203125	-1787.72802734375	956.2867431640624	-506.8471069335938	-2067.0224609375	345.94580078125	-439.0364074707031	-1786.257202148438	977.239501953125	-240.5534820556641	-1886.428833007812	860.8828735351562	-542.9675903320312	-1888.821044921875	883.681640625	-206.0052490234375	-1947.921875	1017.222961425781	-375.3749084472656	-1707.170043945312	770.8624877929688	-534.0325317382812	-1931.982543945312	419.736083984375	-474.5577697753906	-1779.938232421875	730.9291381835938	-559.3298950195312	-1660.03955078125	677.436279296875	-531.22265625	-1847.57080078125	59.65274429321289	-251.9468841552734	-1845.889526367188	462.5918884277344	-514.2427368164062	-1735.11865234375	639.7263793945312	-543.1359252929688	-1743.047241210938	764.0701904296875	-225.7579193115234	-1935.43408203125	125.8532180786133	-446.9330749511719	-1819.648559570312	750.7267456054688	-202.6011352539062	-1731.548583984375	663.6133422851562	-238.3969421386719	-1811.407592773438	652.5787963867188	-222.3083038330078	-1650.86083984375	517.8912353515625	-517.4876098632812	-1757.960571289062	490.1867065429688	-270.1897277832031	-1810.719970703125	386.9013671875	-510.7500610351562	-1905.869995117188	350.3625183105469	-501.9676513671875	-1828.33056640625	310.7315979003906	-260.2436218261719	-1985.604248046875	171.518310546875	-502.6640625	-1902.454345703125	345.4539184570312	-261.8212280273438	-2080.211181640625	323.3118591308594	-408.0947570800781	-1869.196411132812	220.7714385986328	-276.6392517089844	-1941.28125	256.1763916015625	-287.4848937988281	-2020.77099609375	316.2635803222656	-487.4472351074219	-1957.366821289062	125.2241668701172	-275.6175842285156	-1777.653442382812	66.45935821533203	-333.0959167480469	-2032.940795898438	102.7813568115234	-312.4743041992188	-2027.05322265625	71.53633117675781	-343.5054626464844	-2026.601806640625	76.96025848388672	-284.8218383789062	-2089.152587890625	326.4160766601562	-462.1798095703125
